<svg xmlns="http://www.w3.org/2000/svg" width="43.977" height="43.977" viewBox="0 0 43.977 43.977">
  <g id="Group_488" data-name="Group 488" transform="translate(0)">
    <g id="Group_487" data-name="Group 487" transform="translate(0 0)">
      <path id="Path_2194" data-name="Path 2194" d="M.879,491.995H.859a.859.859,0,1,0,0,1.718h.02a.859.859,0,1,0,0-1.718Z" transform="translate(0 -449.737)" fill="#fff"/>
      <path id="Path_2195" data-name="Path 2195" d="M492.642,491.995h-.02a.859.859,0,1,0,0,1.718h.02a.859.859,0,1,0,0-1.718Z" transform="translate(-449.524 -449.737)" fill="#fff"/>
      <path id="Path_2196" data-name="Path 2196" d="M67.107,42.259h-.625a18.029,18.029,0,0,0-8.733-14.588,11.1,11.1,0,0,0,1.85-5.338h.033a3.436,3.436,0,0,0,.859-6.763V13.188c2.836-1.041,4.713-2.634,5.475-4.672v0c.009-.025.017-.05.024-.076v0c.006-.022.01-.044.014-.067,0-.006,0-.012,0-.018,0-.023.006-.046.008-.069,0-.005,0-.011,0-.016s0-.038,0-.057,0-.018,0-.028,0-.022,0-.033a.86.86,0,0,0-.3-.588l-.025-.022-.022-.015c-.016-.011-.031-.023-.048-.034l-.013-.007c-.02-.012-.041-.024-.062-.035l-.015-.007c-.021-.01-.042-.019-.064-.028h0L65.424,7.4l-.041-.013a12.8,12.8,0,0,1-4.632-2.757C58.032,2.459,54.95,0,48.466,0a11.962,11.962,0,0,0-7.3,2.476.844.844,0,0,0-.159.124,12.124,12.124,0,0,0-2.619,2.873.858.858,0,0,0-.1.157,11.952,11.952,0,0,0-1.846,6.4v3.545a3.436,3.436,0,0,0,.859,6.763h.032a11.1,11.1,0,0,0,1.849,5.338,18.029,18.029,0,0,0-8.733,14.588h-.625a.859.859,0,0,0,0,1.718H67.107a.859.859,0,1,0,0-1.718Zm-31.525,0H32.169a16.249,16.249,0,0,1,3.413-9.139ZM41.087,4.837a6.583,6.583,0,0,0,4.874,5.117A.859.859,0,1,0,46.436,8.3c-3.094-.89-3.548-3.148-3.848-4.643l-.017-.084a10.248,10.248,0,0,1,5.895-1.857c5.883,0,8.593,2.162,11.215,4.253A16.689,16.689,0,0,0,63.95,8.717c-.978,1.519-3.023,2.713-5.878,3.409-5.687,1.386-13.481.509-16.054-1.8a6.923,6.923,0,0,1-2.055-4.115A10.367,10.367,0,0,1,41.087,4.837ZM58.773,13.72v1.742c-.706,0-1.273-.463-1.694-1.376.479-.085.948-.181,1.4-.291ZM38.159,12.026a10.257,10.257,0,0,1,.64-3.577,7.82,7.82,0,0,0,1.745,2.829c-.207,2.082-1.011,4.184-2.386,4.184Zm9.448,30.234H37.3V31.239a16.518,16.518,0,0,1,2.69-2.048l2.567,7.174a.859.859,0,0,0,1.362.368l3.688-3.106Zm-5.2-11.41a11.1,11.1,0,0,0,3.944,1.589l-2.594,2.185Zm6.063.073h-.016a9.432,9.432,0,0,1-7.267-3.43l-.013-.02-.02-.03-.03-.04-.024-.029-.031-.034-.025-.025a9.4,9.4,0,0,1-2.027-5.841.859.859,0,0,0-.859-.859H37.3a1.718,1.718,0,1,1,0-3.436h.859A3.45,3.45,0,0,0,41.236,15.1a8.717,8.717,0,0,0,.878-2.628A17.789,17.789,0,0,0,48.527,14.3a30.5,30.5,0,0,0,6.8.037c.932,2.455,2.531,2.845,3.449,2.845h.859a1.718,1.718,0,1,1,0,3.436h-.859a.859.859,0,0,0-.859.859,9.4,9.4,0,0,1-2.026,5.839l-.037.037-.011.012c-.015.017-.029.034-.043.052l-.011.014c-.013.018-.026.036-.037.056l0,.007a9.433,9.433,0,0,1-7.268,3.431Zm6.054-.073-1.35,3.774L50.58,32.438A11.1,11.1,0,0,0,54.525,30.849ZM59.632,42.26H49.325V33.627l3.689,3.106a.859.859,0,0,0,1.362-.368l2.567-7.174a16.518,16.518,0,0,1,2.689,2.047Zm1.718,0V33.121a16.249,16.249,0,0,1,3.413,9.139Z" transform="translate(-26.477 -0.001)" fill="#fff"/>
      <path id="Path_2197" data-name="Path 2197" d="M282.5,439.854h-.02a.859.859,0,0,0,0,1.718h.02a.859.859,0,0,0,0-1.718Z" transform="translate(-257.428 -402.074)" fill="#fff"/>
      <path id="Path_2198" data-name="Path 2198" d="M294.576,237.5a1.074,1.074,0,1,0,1.074,1.074A1.076,1.076,0,0,0,294.576,237.5Z" transform="translate(-268.292 -217.103)" fill="#fff"/>
      <path id="Path_2199" data-name="Path 2199" d="M194.576,237.5a1.074,1.074,0,1,0,1.074,1.074A1.076,1.076,0,0,0,194.576,237.5Z" transform="translate(-176.882 -217.103)" fill="#fff"/>
      <path id="Path_2200" data-name="Path 2200" d="M181.038,201.752a.859.859,0,0,0-.314-1.173,4.294,4.294,0,0,0-4.295,0,.859.859,0,0,0,.859,1.488,2.576,2.576,0,0,1,2.577,0,.859.859,0,0,0,1.173-.314Z" transform="translate(-160.882 -182.824)" fill="#fff"/>
      <path id="Path_2201" data-name="Path 2201" d="M281.04,201.752a.859.859,0,0,0-.314-1.173,4.294,4.294,0,0,0-4.295,0,.859.859,0,1,0,.859,1.487,2.576,2.576,0,0,1,2.576,0,.858.858,0,0,0,1.173-.314Z" transform="translate(-252.295 -182.824)" fill="#fff"/>
      <path id="Path_2202" data-name="Path 2202" d="M229.867,293.783a2.575,2.575,0,0,1-2.576,0,.859.859,0,1,0-.859,1.487,4.294,4.294,0,0,0,4.295,0,.859.859,0,0,0-.859-1.488Z" transform="translate(-206.59 -268.444)" fill="#fff"/>
      <path id="Path_2203" data-name="Path 2203" d="M249.21,102.547l.05,0h.038a.859.859,0,0,0,.037-1.717h-.02a.859.859,0,1,0-.106,1.715Z" transform="translate(-227.068 -92.17)" fill="#fff"/>
    </g>
  </g>
</svg>
