<svg xmlns="http://www.w3.org/2000/svg" width="46.413" height="40.038" viewBox="0 0 46.413 40.038">
  <g id="_007-baby-1" data-name="007-baby-1" transform="translate(0 -35.166)">
    <g id="Group_447" data-name="Group 447" transform="translate(15.871 60.5)">
      <g id="Group_446" data-name="Group 446" transform="translate(0 0)">
        <path id="Path_2174" data-name="Path 2174" d="M185.321,314.632a4.189,4.189,0,0,0-2.83,1.122.813.813,0,0,1-.15,0,4.19,4.19,0,0,0-2.83-1.122,4.893,4.893,0,0,0,0,9.743,4.191,4.191,0,0,0,2.83-1.122.816.816,0,0,1,.149,0,4.19,4.19,0,0,0,2.83,1.122,4.893,4.893,0,0,0,0-9.743Zm-5.257,7.778a2.181,2.181,0,0,1-.552.071,3.015,3.015,0,0,1,0-5.954,2.181,2.181,0,0,1,.552.071,3.736,3.736,0,0,0,0,5.813Zm2.353-1.059a1.847,1.847,0,1,1,1.847-1.847A1.849,1.849,0,0,1,182.416,321.35Zm2.9,1.13a2.186,2.186,0,0,1-.552-.071,3.736,3.736,0,0,0,0-5.813,2.181,2.181,0,0,1,.552-.071,3.015,3.015,0,0,1,0,5.954Z" transform="translate(-175.081 -314.632)" fill="#fff"/>
      </g>
    </g>
    <g id="Group_449" data-name="Group 449" transform="translate(16.167 55.049)">
      <g id="Group_448" data-name="Group 448">
        <path id="Path_2175" data-name="Path 2175" d="M179.673,254.5A1.326,1.326,0,1,0,181,255.829,1.328,1.328,0,0,0,179.673,254.5Z" transform="translate(-178.347 -254.503)" fill="#fff"/>
      </g>
    </g>
    <g id="Group_451" data-name="Group 451" transform="translate(27.594 55.049)">
      <g id="Group_450" data-name="Group 450">
        <path id="Path_2176" data-name="Path 2176" d="M305.721,254.5a1.326,1.326,0,1,0,1.326,1.326A1.328,1.328,0,0,0,305.721,254.5Z" transform="translate(-304.395 -254.503)" fill="#fff"/>
      </g>
    </g>
    <g id="Group_453" data-name="Group 453" transform="translate(0 35.166)">
      <g id="Group_452" data-name="Group 452">
        <path id="Path_2177" data-name="Path 2177" d="M40.877,50.972q-.141,0-.281.008a18.444,18.444,0,0,0-5.676-8.26c.513-1.378,1.333-4.484-.4-7.126a.947.947,0,0,0-.792-.428,19.7,19.7,0,0,0-7.816,1.717,3.123,3.123,0,0,0-5.409,0,19.7,19.7,0,0,0-7.816-1.717.947.947,0,0,0-.792.428c-1.728,2.635-.917,5.732-.4,7.116a18.376,18.376,0,0,0-5.678,8.27c-.092,0-.184-.008-.276-.008a5.888,5.888,0,0,0,0,11.754q.14,0,.281-.008a18.355,18.355,0,0,0,14.142,12.2.947.947,0,0,0,.333-1.865,16.463,16.463,0,0,1,.6-32.5,3.12,3.12,0,0,0,4.62,0A16.463,16.463,0,0,1,26.1,73.056a.947.947,0,1,0,.331,1.865A18.356,18.356,0,0,0,40.6,62.718c.094,0,.187.008.281.008a5.888,5.888,0,0,0,0-11.754ZM5.284,60.822a4.023,4.023,0,0,1,0-7.946h0a18.385,18.385,0,0,0,0,7.942Zm7.8-19.3a6.189,6.189,0,0,1,.138-4.453,18.151,18.151,0,0,1,6.838,1.693A18.239,18.239,0,0,0,13.089,41.524Zm10.118-1.845a1.231,1.231,0,1,1,1.231-1.231A1.233,1.233,0,0,1,23.206,39.678Zm10.112,1.851a18.2,18.2,0,0,0-6.968-2.767,18.153,18.153,0,0,1,6.836-1.692A6.233,6.233,0,0,1,33.318,41.529Zm7.811,19.293,0,0a18.326,18.326,0,0,0,0-7.938l0-.006a4.023,4.023,0,0,1,0,7.946Z" transform="translate(0 -35.166)" fill="#fff"/>
      </g>
    </g>
    <g id="Group_455" data-name="Group 455" transform="translate(22.248 73.309)">
      <g id="Group_454" data-name="Group 454" transform="translate(0 0)">
        <path id="Path_2178" data-name="Path 2178" d="M246.408,455.934h-.022a.947.947,0,1,0-.024,1.894h.034a.947.947,0,0,0,.012-1.894Z" transform="translate(-245.427 -455.934)" fill="#fff"/>
      </g>
    </g>
  </g>
</svg>
