<svg xmlns="http://www.w3.org/2000/svg" width="51" height="46.75" viewBox="0 0 51 46.75">
  <g id="Group_485" data-name="Group 485" transform="translate(0 0)">
    <g id="Group_484" data-name="Group 484">
      <path id="Path_2189" data-name="Path 2189" d="M106.861,189.071a1.063,1.063,0,0,0-1.447.407l-.025.045a1.063,1.063,0,1,0,1.861,1.027l.018-.032A1.063,1.063,0,0,0,106.861,189.071Z" transform="translate(-94.772 -172.241)" fill="#fff"/>
      <path id="Path_2190" data-name="Path 2190" d="M46.084,41.536A21.272,21.272,0,0,0,35.2,27.92a3.87,3.87,0,0,1,.555-.811,7.234,7.234,0,0,0,.917-1.358,3.354,3.354,0,0,0-.108-3.083,3.037,3.037,0,0,0-2.785-1.337h-.06c-4.58,0-6.884,1.634-8.043,3.23-.057,0-.115,0-.173,0s-.116,0-.174,0c-1.159-1.6-3.463-3.23-8.042-3.23h-.059a3.036,3.036,0,0,0-2.785,1.337,3.354,3.354,0,0,0-.108,3.082,7.236,7.236,0,0,0,.916,1.357,3.821,3.821,0,0,1,.557.815c-.1.048-.18.088-.242.12A21.222,21.222,0,0,0,4.917,41.536a5.311,5.311,0,0,0,0,10.593,21.253,21.253,0,0,0,41.164,0,5.311,5.311,0,0,0,0-10.593ZM4.256,47.314c0,.051,0,.1,0,.151q.005.175.013.35c0,.05,0,.1.007.15q.012.218.028.437c.005.069.011.138.017.207q.011.129.023.258c.007.076.015.152.023.228.01.092.021.184.032.276q.019.163.041.324c.009.071.019.141.029.212a3.188,3.188,0,0,1,0-6.15v.009q-.026.181-.049.363c0,.006,0,.011,0,.017q-.023.183-.043.366l0,.016q-.02.182-.036.365c0,.006,0,.013,0,.019q-.016.177-.029.356c0,.01,0,.02,0,.03q-.012.17-.022.342c0,.015,0,.03,0,.044q-.009.163-.015.327c0,.019,0,.039,0,.058q-.005.156-.008.313c0,.024,0,.047,0,.071q0,.19,0,.38C4.25,46.993,4.252,47.154,4.256,47.314ZM33.717,23.457h.053c.356,0,.816.06.986.333a1.307,1.307,0,0,1,.006,1.025,5.413,5.413,0,0,1-.667.966A3.805,3.805,0,0,0,33,28.235a2.94,2.94,0,0,0,.03.414,1.081,1.081,0,0,0,.034.191,4.448,4.448,0,0,0,1.028,1.849,5.406,5.406,0,0,1,.667.966,1.306,1.306,0,0,1-.005,1.025c-.17.273-.63.332-.986.333h-.052c-2.714,0-4.738-.651-5.938-1.895a3.671,3.671,0,0,0,0-5.765C28.979,24.108,31,23.457,33.717,23.457ZM25.5,26.683a1.552,1.552,0,1,1-1.552,1.552A1.554,1.554,0,0,1,25.5,26.683ZM16.245,23.79c.17-.273.63-.332.986-.333,2.737-.011,4.782.642,5.99,1.895a3.671,3.671,0,0,0,0,5.765c-1.208,1.251-3.251,1.9-5.99,1.895-.356,0-.817-.06-.986-.333a1.306,1.306,0,0,1-.005-1.025,5.4,5.4,0,0,1,.667-.966A3.8,3.8,0,0,0,18,28.235a3.8,3.8,0,0,0-1.092-2.454,5.4,5.4,0,0,1-.667-.966A1.3,1.3,0,0,1,16.245,23.79ZM44.618,47.336c0,.023,0,.045,0,.068,0,.146-.01.292-.017.438,0,.02,0,.04,0,.059-.008.148-.018.3-.029.445,0,.021,0,.042-.006.062-.012.145-.025.291-.04.436,0,.03-.007.06-.01.09-.015.134-.03.268-.048.4-.006.045-.012.089-.019.133-.016.116-.033.233-.051.349-.01.063-.021.126-.031.189-.016.094-.032.188-.049.283s-.032.167-.048.251-.027.14-.042.21a19.127,19.127,0,0,1-37.449-.031c-.014-.066-.026-.132-.039-.2-.017-.087-.034-.174-.05-.262s-.035-.2-.051-.3c-.009-.056-.019-.111-.028-.167-.021-.135-.04-.27-.058-.405,0-.024-.007-.048-.01-.073a19.278,19.278,0,0,1-.161-2.479c0-.2,0-.4.01-.6,0-.066.005-.132.008-.2q.009-.2.021-.4c0-.075.009-.15.015-.225.01-.136.022-.272.035-.407.006-.063.011-.126.018-.189q.029-.277.067-.553c.01-.076.022-.152.033-.228.018-.12.036-.24.056-.359q.02-.12.042-.24c.022-.123.046-.246.07-.368.014-.07.027-.139.042-.209a19.078,19.078,0,0,1,7.288-11.368A3.233,3.233,0,0,0,14.44,33.8c.016.026.033.051.051.077a17.022,17.022,0,0,0-1.979,1.984,1.063,1.063,0,1,0,1.624,1.37A14.882,14.882,0,0,1,16.4,35.064a4.586,4.586,0,0,0,.827.073h.059c4.58,0,6.885-1.634,8.043-3.23.058,0,.116,0,.174,0s.116,0,.174,0c1.158,1.6,3.463,3.23,8.043,3.23h.059A3.036,3.036,0,0,0,36.561,33.8a3.232,3.232,0,0,0,.362-2.3,19.255,19.255,0,0,1,7.62,13.581c0,.022,0,.045.006.067q.012.138.023.277t.019.292q.006.1.011.2c.005.113.01.227.013.34q0,.067,0,.133c0,.148.006.3.006.445Q44.625,47.084,44.618,47.336Zm1.91,2.571c.01-.07.019-.141.029-.212q.022-.161.041-.323c.011-.093.022-.186.032-.278.008-.075.015-.151.023-.227s.016-.173.023-.259c.006-.069.012-.137.017-.206q.016-.218.028-.437c0-.05,0-.1.007-.15q.008-.175.013-.351c0-.05,0-.1,0-.151,0-.161.006-.322.006-.482a21.4,21.4,0,0,0-.222-3.075,3.188,3.188,0,0,1,0,6.15Z" transform="translate(0 -21.332)" fill="#fff"/>
      <path id="Path_2191" data-name="Path 2191" d="M143.509,261.2a4.25,4.25,0,0,0-8.21,0,1.063,1.063,0,1,0,2.053.55,2.125,2.125,0,0,1,4.1,0,1.063,1.063,0,0,0,2.053-.55Z" transform="translate(-121.788 -234.475)" fill="#fff"/>
      <path id="Path_2192" data-name="Path 2192" d="M297.722,258.055a4.257,4.257,0,0,0-4.105,3.15,1.063,1.063,0,0,0,2.053.55,2.125,2.125,0,0,1,4.105,0,1.063,1.063,0,1,0,2.053-.55A4.256,4.256,0,0,0,297.722,258.055Z" transform="translate(-264.336 -234.475)" fill="#fff"/>
      <path id="Path_2193" data-name="Path 2193" d="M221.918,364.193a1.063,1.063,0,0,0-1.3.751,2.125,2.125,0,0,1-4.1,0,1.063,1.063,0,0,0-2.053.55,4.25,4.25,0,0,0,8.21,0A1.063,1.063,0,0,0,221.918,364.193Z" transform="translate(-193.064 -330.008)" fill="#fff"/>
    </g>
  </g>
</svg>
