<svg xmlns="http://www.w3.org/2000/svg" width="45.581" height="49.188" viewBox="0 0 45.581 49.188">
  <g id="_002-boy" data-name="002-boy" transform="translate(-18.773)">
    <g id="Group_504" data-name="Group 504" transform="translate(18.773)">
      <g id="Group_503" data-name="Group 503">
        <path id="Path_2213" data-name="Path 2213" d="M59.641,18.912a4.72,4.72,0,0,0-1.2.153A17.474,17.474,0,0,0,42.931,6.2a5.021,5.021,0,0,1,4.9-3.939,1.129,1.129,0,1,0,0-2.258,7.279,7.279,0,0,0-6.54,4.1A4.048,4.048,0,0,0,38.745,3.2a1.129,1.129,0,1,0,0,2.258A1.808,1.808,0,0,1,40.2,6.2,17.471,17.471,0,0,0,24.683,19.065a4.713,4.713,0,1,0,0,9.12,17.452,17.452,0,0,0,8.63,10.858,9.223,9.223,0,0,0-7.335,9.016,1.129,1.129,0,0,0,1.129,1.129H48.965a1.129,1.129,0,1,0,0-2.258H28.327a6.961,6.961,0,0,1,6.858-5.821h.822a5.67,5.67,0,0,0,11.113,0h.822a6.95,6.95,0,0,1,6.95,6.95,1.129,1.129,0,0,0,2.258,0,9.212,9.212,0,0,0-7.334-9.017,17.454,17.454,0,0,0,8.629-10.857,4.714,4.714,0,1,0,1.2-9.273Zm-35.4,7.051a2.456,2.456,0,1,1,0-4.675,17.611,17.611,0,0,0,0,4.675ZM41.564,43.392a3.417,3.417,0,0,1-3.219-2.283h6.438A3.416,3.416,0,0,1,41.564,43.392Zm14.974-17V26.4a15.228,15.228,0,0,1-29.945,0v-.013a15.364,15.364,0,0,1,0-5.522v-.012a15.228,15.228,0,0,1,29.945,0h0v.011a15.376,15.376,0,0,1,0,5.527Zm3.1-.308a2.459,2.459,0,0,1-.75-.117,17.616,17.616,0,0,0,0-4.676,2.455,2.455,0,1,1,.75,4.793Z" transform="translate(-18.773)" fill="#fff"/>
      </g>
    </g>
    <g id="Group_506" data-name="Group 506" transform="translate(37.337 26.827)">
      <g id="Group_505" data-name="Group 505">
        <path id="Path_2214" data-name="Path 2214" d="M219.908,279.4a1.129,1.129,0,0,0-1.547.4,2.481,2.481,0,0,1-1.584,1.138,2.429,2.429,0,0,1-1.907-.336,2.488,2.488,0,0,1-.76-.8,1.129,1.129,0,0,0-1.943,1.15,4.758,4.758,0,0,0,1.452,1.531,4.691,4.691,0,0,0,2.6.777,4.77,4.77,0,0,0,4.086-2.307A1.129,1.129,0,0,0,219.908,279.4Z" transform="translate(-212.01 -279.241)" fill="#fff"/>
      </g>
    </g>
    <g id="Group_508" data-name="Group 508" transform="translate(32.85 18.669)">
      <g id="Group_507" data-name="Group 507">
        <path id="Path_2215" data-name="Path 2215" d="M166.43,194.329a1.129,1.129,0,0,0-1.129,1.129v2.5a1.129,1.129,0,0,0,2.258,0v-2.5A1.129,1.129,0,0,0,166.43,194.329Z" transform="translate(-165.301 -194.329)" fill="#fff"/>
      </g>
    </g>
    <g id="Group_510" data-name="Group 510" transform="translate(48.021 18.669)">
      <g id="Group_509" data-name="Group 509">
        <path id="Path_2216" data-name="Path 2216" d="M324.343,194.329a1.129,1.129,0,0,0-1.129,1.129v2.5a1.129,1.129,0,0,0,2.258,0v-2.5A1.129,1.129,0,0,0,324.343,194.329Z" transform="translate(-323.214 -194.329)" fill="#fff"/>
      </g>
    </g>
    <g id="Group_512" data-name="Group 512" transform="translate(51.016 46.93)">
      <g id="Group_511" data-name="Group 511">
        <path id="Path_2217" data-name="Path 2217" d="M356,488.5h-.47a1.129,1.129,0,1,0,0,2.258H356a1.129,1.129,0,0,0,0-2.258Z" transform="translate(-354.397 -488.498)" fill="#fff"/>
      </g>
    </g>
  </g>
</svg>
