<svg xmlns="http://www.w3.org/2000/svg" width="34.688" height="46.07" viewBox="0 0 34.688 46.07">
  <g id="_003-baby-drinking-bottle" data-name="003-baby-drinking-bottle" transform="translate(-63.249 0)">
    <g id="Group_471" data-name="Group 471" transform="translate(67.567 13.573)">
      <g id="Group_470" data-name="Group 470">
        <path id="Path_2185" data-name="Path 2185" d="M116.206,153.742a.9.9,0,0,0-1.271.069,1.168,1.168,0,0,1-1.648.09.754.754,0,0,1-.058-1.064.569.569,0,0,1,.316-.194.169.169,0,0,1,.153.047.9.9,0,1,0,1.2-1.34,1.958,1.958,0,0,0-1.6-.489,2.344,2.344,0,0,0-1.405.775,2.556,2.556,0,0,0,.2,3.605,2.97,2.97,0,0,0,4.189-.229A.9.9,0,0,0,116.206,153.742Z" transform="translate(-111.239 -150.841)" fill="#fff"/>
      </g>
    </g>
    <g id="Group_473" data-name="Group 473" transform="translate(63.249 0)">
      <g id="Group_472" data-name="Group 472">
        <path id="Path_2186" data-name="Path 2186" d="M97.619,7.278,94.1,1.184A2.366,2.366,0,0,0,90.868.318L80.838,6.109l-.994.574a2.494,2.494,0,0,0-1.057,3.106,8.779,8.779,0,0,0-.715-.812,8.663,8.663,0,0,0-6.579-2.528.906.906,0,0,0-.163-.016A2.125,2.125,0,0,1,69.207,4.31a1.52,1.52,0,0,1,1.518-1.518c.5,0,1.035.245,1.035.783a.9.9,0,0,0,1.8,0A2.657,2.657,0,0,0,70.725.992,3.322,3.322,0,0,0,67.407,4.31a3.91,3.91,0,0,0,1.176,2.8,8.679,8.679,0,0,0-2.812,14.127,10.508,10.508,0,0,0-2.522,6.859v7.39A10.6,10.6,0,0,0,73.837,46.07H89.077a3.7,3.7,0,0,0,3.693-3.693V40.225a3.694,3.694,0,0,0-7.019-1.609H79.9V35.932a3.48,3.48,0,0,0-1.665-2.967V29.814h4.188A3.079,3.079,0,0,0,85.165,28.1l.015-.032,4.094-9.241a3.059,3.059,0,0,0-5.5-2.68l-.017.037L80.484,23.7h-4.74a.9.9,0,1,0,0,1.8h5.329a.9.9,0,0,0,.825-.54l3.5-8.027a1.26,1.26,0,0,1,2.253,1.127l-.015.032-4.093,9.237a1.268,1.268,0,0,1-1.124.691H73.15a1.261,1.261,0,0,1-1.26-1.26.9.9,0,0,0-1.8,0,3.063,3.063,0,0,0,3.059,3.059h3.281v2.639H65.049V28.092a8.723,8.723,0,0,1,2.114-5.718,8.687,8.687,0,0,0,13.176-5.082.9.9,0,0,0-1.743-.45,6.888,6.888,0,1,1-.333-4.428,2.188,2.188,0,0,0-.094.27,2.149,2.149,0,0,0,3.15,2.417.442.442,0,0,1,.6.162.9.9,0,0,0,1.558-.9,2.241,2.241,0,0,0-3.061-.82.349.349,0,1,1-.349-.6,2.244,2.244,0,0,0,.82-3.061l-.4-.692a.692.692,0,0,1,.253-.944l.215-.124,2.314,4.008a.9.9,0,1,0,1.558-.9L82.517,7.217l1.338-.773.487.843a.9.9,0,0,0,1.558-.9l-.487-.843,1.168-.674.487.843a.9.9,0,0,0,1.558-.9l-.487-.843L89.308,3.3l.487.843a.9.9,0,1,0,1.558-.9L90.867,2.4l.9-.521a.567.567,0,0,1,.774.207l3.519,6.094a.567.567,0,0,1-.207.774l-3.689,2.13a.9.9,0,1,0,.9,1.558l3.689-2.13a2.365,2.365,0,0,0,.866-3.232ZM86.375,40.416h0a.9.9,0,0,0,.871-.672,1.894,1.894,0,0,1,3.725.481v2.151a1.9,1.9,0,0,1-1.894,1.894H76.664a1.927,1.927,0,1,1,0-3.854h9.711Zm-9.959-6.164a1.682,1.682,0,0,1,1.68,1.68v2.684H76.664a3.725,3.725,0,0,0-3.193,5.646,8.8,8.8,0,0,1-8.422-8.78v-1.23H76.416Z" transform="translate(-63.249 0)" fill="#fff"/>
      </g>
    </g>
    <g id="Group_475" data-name="Group 475" transform="translate(88.903 12.584)">
      <g id="Group_474" data-name="Group 474">
        <path id="Path_2187" data-name="Path 2187" d="M349.89,140.12a.9.9,0,1,0,.263.636A.908.908,0,0,0,349.89,140.12Z" transform="translate(-348.354 -139.856)" fill="#fff"/>
      </g>
    </g>
    <g id="Group_477" data-name="Group 477" transform="translate(73.867 11.788)">
      <g id="Group_476" data-name="Group 476">
        <path id="Path_2188" data-name="Path 2188" d="M182.782,131.27a.9.9,0,1,0,.264.636A.906.906,0,0,0,182.782,131.27Z" transform="translate(-181.246 -131.006)" fill="#fff"/>
      </g>
    </g>
  </g>
</svg>
