<svg id="_001-boy-1" data-name="001-boy-1" xmlns="http://www.w3.org/2000/svg" width="34.362" height="47.824" viewBox="0 0 34.362 47.824">
  <path id="Path_2210" data-name="Path 2210" d="M233.211,457.39a.95.95,0,0,1-.183-.019.978.978,0,0,1-.174-.053.937.937,0,0,1-.161-.086.9.9,0,0,1-.142-.116,1.014,1.014,0,0,1-.117-.142,1,1,0,0,1-.086-.162.939.939,0,0,1-.053-.175.925.925,0,0,1-.018-.182.922.922,0,0,1,.071-.358.994.994,0,0,1,.086-.162,1.058,1.058,0,0,1,.117-.142.935.935,0,0,1,.3-.2.978.978,0,0,1,.174-.053.944.944,0,0,1,.844.255.928.928,0,0,1,.2.3.94.94,0,0,1,.072.358.925.925,0,0,1-.019.182.94.94,0,0,1-.053.175,1,1,0,0,1-.086.162.961.961,0,0,1-.116.142.884.884,0,0,1-.142.116.905.905,0,0,1-.162.086.938.938,0,0,1-.175.053A.924.924,0,0,1,233.211,457.39Zm0,0" transform="translate(-210.581 -412.974)" fill="#fff"/>
  <path id="Path_2211" data-name="Path 2211" d="M79.745,457.384h-12a.934.934,0,1,1,0-1.868h12a.934.934,0,0,1,0,1.868Zm0,0" transform="translate(-60.571 -412.968)" fill="#fff"/>
  <path id="Path_2212" data-name="Path 2212" d="M31.341,6.881H26.628a9.512,9.512,0,0,0-3.1-4.208A13.918,13.918,0,0,0,14.92,0h-.062A13.818,13.818,0,0,0,6.251,2.744a9.8,9.8,0,0,0-3.7,8.145s-.04,4.13-.04,4.246a12.408,12.408,0,0,0,8.378,11.721V29.3H6.056A6.063,6.063,0,0,0,0,35.352V46.89a.934.934,0,0,0,.934.934H28.871a.934.934,0,0,0,.934-.934V35.352A6.063,6.063,0,0,0,23.749,29.3H18.91v-2.44a12.408,12.408,0,0,0,8.378-11.721c0-.116-.04-2.214-.04-2.214h4.093a3.021,3.021,0,0,0,0-6.041ZM12.762,11.054V10.6a1.915,1.915,0,0,1,3.83,0v.452ZM25.38,12.922v2.13a27.178,27.178,0,0,1-8.315-2.13ZM7.421,4.2a11.958,11.958,0,0,1,7.442-2.333h.059A12.054,12.054,0,0,1,22.37,4.14a7.862,7.862,0,0,1,3.011,6.6c0,.007,0,.013,0,.02v.29H18.46V10.6a3.783,3.783,0,0,0-7.566,0v.452H4.424v-.195a8,8,0,0,1,3-6.658Zm-3,10.769V12.922H7.5A6.189,6.189,0,0,1,4.424,14.97ZM6.056,31.164h4.158a21.3,21.3,0,0,1-3.194,4.11c-2.141,2.341-4.528,4.951-5.151,9.339V35.352a4.193,4.193,0,0,1,4.188-4.188ZM3.608,45.956c.269-4.478,2.469-6.883,4.79-9.42a20,20,0,0,0,3.895-5.371h5.218a22.36,22.36,0,0,0,3.946,5.62c2.282,2.62,4.445,5.106,4.734,9.172Zm24.328-10.6v9.38c-.6-4.046-2.869-6.648-5.07-9.175a23.966,23.966,0,0,1-3.282-4.393h4.165a4.193,4.193,0,0,1,4.188,4.188ZM17.042,29.3h-4.28v-1.96a12.446,12.446,0,0,0,4.28,0ZM14.9,25.654a10.536,10.536,0,0,1-10.378-8.8,8.557,8.557,0,0,0,5.329-3.934h2.783c3.33,1.731,8.067,3.721,12.634,4A10.536,10.536,0,0,1,14.9,25.654Zm16.439-14.6H27.248v-.28a11.312,11.312,0,0,0-.135-2.025h4.228a1.152,1.152,0,0,1,0,2.3Zm0,0" fill="#fff"/>
</svg>
