<svg xmlns="http://www.w3.org/2000/svg" width="34.172" height="50.297" viewBox="0 0 34.172 50.297">
  <g id="_002-doll" data-name="002-doll" transform="translate(-82.072)">
    <g id="Group_491" data-name="Group 491" transform="translate(82.072)">
      <g id="Group_490" data-name="Group 490">
        <path id="Path_2204" data-name="Path 2204" d="M107.192,20.673l-.015-.061c-.005-.021-.011-.042-.017-.062a2.552,2.552,0,0,0-2.441-1.786h-2.842v-.4a9.464,9.464,0,0,0,5.53-4.5l2.149,3.529a.982.982,0,0,0,1.358.323,29.3,29.3,0,0,0,2.605-1.86c1.982-1.6,2.843-2.856,2.712-3.952-.161-1.346-1.625-2.628-4.605-4.035-1.464-.691-2.892-1.217-3.561-1.452A9.392,9.392,0,0,0,99.188,0h-.061a9.392,9.392,0,0,0-8.876,6.417c-.67.236-2.1.762-3.561,1.452-2.981,1.406-4.444,2.689-4.605,4.035-.131,1.1.731,2.352,2.712,3.952a29.261,29.261,0,0,0,2.605,1.86.982.982,0,0,0,1.358-.323l2.15-3.531a9.431,9.431,0,0,0,5.529,4.507v.4H93.6a2.552,2.552,0,0,0-2.441,1.786c-.006.02-.012.041-.017.062l-.015.061-7.989,8.692a2.7,2.7,0,0,0,3.811,3.811l1.411-1.3-1.782,7.213a.982.982,0,0,0,.954,1.218h4.928l.3,7.054a3.061,3.061,0,0,0,6.117,0l.288-6.834.288,6.834a3.061,3.061,0,0,0,6.117,0l.3-7.054h4.928a.982.982,0,0,0,.954-1.218L109.96,31.88l1.411,1.3a2.7,2.7,0,0,0,3.811-3.811ZM108.517,8.68c.66.255,1.473.59,2.285.973,3.186,1.505,3.455,2.37,3.477,2.475-.011.069-.159.735-2.085,2.272-.533.425-1.069.81-1.49,1.1l-2.409-3.956a9.4,9.4,0,0,0,.25-2.159C108.544,9.146,108.535,8.909,108.517,8.68Zm-20.9,6.82c-.418-.287-.948-.668-1.477-1.09-1.938-1.545-2.088-2.214-2.1-2.282.022-.105.291-.969,3.476-2.475.812-.384,1.625-.718,2.285-.973-.017.229-.026.466-.026.7a9.378,9.378,0,0,0,.25,2.158Zm18.754-7.877a7.487,7.487,0,0,1-6.014-5.561A7.487,7.487,0,0,1,106.367,7.623Zm-8.4-5.561a7.487,7.487,0,0,1-6.014,5.561A7.487,7.487,0,0,1,97.963,2.062ZM91.741,9.634a9.351,9.351,0,0,0,5.4-2.46,9.4,9.4,0,0,0,2.013-2.689,9.4,9.4,0,0,0,2.013,2.689,9.349,9.349,0,0,0,5.4,2.46,7.4,7.4,0,0,1-.278,1.785l0,.015q-.081.283-.185.56a7.422,7.422,0,0,1-14.366-2.36Zm9.153,11.095h.222a2.191,2.191,0,0,1-3.917,0h.222a.982.982,0,0,0,.982-.982V18.74q.373.03.754.03t.754-.031v1.007A.982.982,0,0,0,100.894,20.729Zm-15.279,11A.732.732,0,0,1,84.581,30.7l5.562-6.052-.935,3.784ZM96.907,47.282a1.1,1.1,0,0,1-2.191,0l-.294-6.971H97.2Zm6.693,0a1.1,1.1,0,0,1-2.191,0l-.294-6.971h2.778ZM88.783,38.346l4.254-17.225a.594.594,0,0,1,.56-.393h1.522a4.157,4.157,0,0,0,8.077,0h1.522a.594.594,0,0,1,.561.393l4.254,17.225Zm24.931-6.638a.73.73,0,0,1-1.013.021l-3.593-3.3-.935-3.784,5.562,6.051h0A.73.73,0,0,1,113.713,31.708Z" transform="translate(-82.072)" fill="#fff"/>
      </g>
    </g>
    <g id="Group_493" data-name="Group 493" transform="translate(101.248 9.661)">
      <g id="Group_492" data-name="Group 492">
        <path id="Path_2205" data-name="Path 2205" d="M278.664,98.339h-.4a.982.982,0,0,0,0,1.965h.4a.982.982,0,0,0,0-1.965Z" transform="translate(-277.279 -98.339)" fill="#fff"/>
      </g>
    </g>
    <g id="Group_495" data-name="Group 495" transform="translate(94.7 9.661)">
      <g id="Group_494" data-name="Group 494">
        <path id="Path_2206" data-name="Path 2206" d="M212,98.339h-.4a.982.982,0,1,0,0,1.965h.4a.982.982,0,0,0,0-1.965Z" transform="translate(-210.618 -98.339)" fill="#fff"/>
      </g>
    </g>
    <g id="Group_497" data-name="Group 497" transform="translate(105.662 35.524)">
      <g id="Group_496" data-name="Group 496">
        <path id="Path_2207" data-name="Path 2207" d="M324.155,362.406a.92.92,0,0,0-.056-.184,1,1,0,0,0-.09-.17.951.951,0,0,0-.271-.271.975.975,0,0,0-.17-.09,1,1,0,0,0-.184-.056.968.968,0,0,0-.383,0,1.03,1.03,0,0,0-.185.056,1,1,0,0,0-.169.09.953.953,0,0,0-.271.271.945.945,0,0,0-.09.17.917.917,0,0,0-.056.184.964.964,0,0,0-.02.191.974.974,0,0,0,.02.193.959.959,0,0,0,.056.184.981.981,0,0,0,.362.441,1,1,0,0,0,.169.09,1.028,1.028,0,0,0,.185.056.993.993,0,0,0,.383,0,.994.994,0,0,0,.184-.056.97.97,0,0,0,.17-.09.952.952,0,0,0,.149-.123.931.931,0,0,0,.122-.149.989.989,0,0,0,.09-.169.96.96,0,0,0,.056-.184.982.982,0,0,0,.02-.193A.972.972,0,0,0,324.155,362.406Z" transform="translate(-322.21 -361.616)" fill="#fff"/>
      </g>
    </g>
    <g id="Group_499" data-name="Group 499" transform="translate(93.595 24.632)">
      <g id="Group_498" data-name="Group 498">
        <path id="Path_2208" data-name="Path 2208" d="M206.942,250.745a3.2,3.2,0,0,0-2.012.64,3.2,3.2,0,0,0-2.01-.64,3.468,3.468,0,0,0-3.551,3.619,4.545,4.545,0,0,0,.667,2.439c.761,1.286,2.7,2.591,4.095,3.461l.172.108a1.167,1.167,0,0,0,1.249,0l.171-.107c1.4-.866,3.338-2.168,4.106-3.464a4.545,4.545,0,0,0,.666-2.439A3.469,3.469,0,0,0,206.942,250.745Zm1.2,5.058a10.591,10.591,0,0,1-3.208,2.643,10.677,10.677,0,0,1-3.2-2.643,2.613,2.613,0,0,1-.394-1.439,1.5,1.5,0,0,1,1.587-1.654,1.117,1.117,0,0,1,1.079.547,1.051,1.051,0,0,0,.928.558h0a1.052,1.052,0,0,0,.928-.555,1.123,1.123,0,0,1,1.084-.549,1.505,1.505,0,0,1,1.589,1.654A2.613,2.613,0,0,1,208.138,255.8Z" transform="translate(-199.369 -250.745)" fill="#fff"/>
      </g>
    </g>
    <g id="Group_501" data-name="Group 501" transform="translate(90.689 35.524)">
      <g id="Group_500" data-name="Group 500">
        <path id="Path_2209" data-name="Path 2209" d="M181.873,361.613h-11.1a.982.982,0,1,0,0,1.965h11.1a.982.982,0,0,0,0-1.965Z" transform="translate(-169.79 -361.613)" fill="#fff"/>
      </g>
    </g>
  </g>
</svg>
