<svg xmlns="http://www.w3.org/2000/svg" width="32.3" height="51.537" viewBox="0 0 32.3 51.537">
  <g id="_004-baby-boy" data-name="004-baby-boy" transform="translate(-95.555)">
    <g id="Group_458" data-name="Group 458" transform="translate(106.835 48.171)">
      <g id="Group_457" data-name="Group 457">
        <path id="Path_2179" data-name="Path 2179" d="M216.724,478.629a1.007,1.007,0,0,0-1.309.56,1.176,1.176,0,0,1-1.09.721h-3.677a1.176,1.176,0,0,1-1.09-.721,1.007,1.007,0,1,0-1.869.749,3.165,3.165,0,0,0,2.959,1.985h3.677a3.165,3.165,0,0,0,2.959-1.985A1.007,1.007,0,0,0,216.724,478.629Z" transform="translate(-207.616 -478.556)" fill="#fff"/>
      </g>
    </g>
    <g id="Group_460" data-name="Group 460" transform="translate(95.555)">
      <g id="Group_459" data-name="Group 459" transform="translate(0)">
        <path id="Path_2180" data-name="Path 2180" d="M127.764,43.058a4.966,4.966,0,0,0-2.383-3.351,5,5,0,0,0,1.789-4.629,12.69,12.69,0,0,0-7.038-9.545,11.546,11.546,0,0,0-5.275-19.009,4.354,4.354,0,0,0,1.02-2.811A3.716,3.716,0,0,0,112.164,0h0a3.371,3.371,0,0,0-2.179.756,2.747,2.747,0,0,0-.992,2.133,1.007,1.007,0,0,0,2.013,0,.745.745,0,0,1,.276-.593,1.364,1.364,0,0,1,.881-.283h0a1.7,1.7,0,0,1,1.7,1.7,2.375,2.375,0,0,1-2.374,2.375h0c-.025,0-.049,0-.073,0a11.546,11.546,0,0,0-8.136,19.443,12.691,12.691,0,0,0-7.038,9.545,5,5,0,0,0,1.789,4.63,4.968,4.968,0,0,0-1.419,7.359l2.156,2.755a4.487,4.487,0,0,0,3.536,1.711,4.44,4.44,0,0,0,2.225-.594,4.5,4.5,0,0,0,1.913-5.547l-1.308-3.244a4.959,4.959,0,0,0-.306-.624h7.383a1.007,1.007,0,0,0,0-2.013h-9.3V37.387a.5.5,0,0,1,.5-.5H120a.5.5,0,0,1,.5.5v2.261a4.966,4.966,0,0,0-2.22,2.5l-1.308,3.244a4.5,4.5,0,0,0,1.913,5.547,4.44,4.44,0,0,0,2.225.594,4.488,4.488,0,0,0,3.536-1.711l2.155-2.755A4.966,4.966,0,0,0,127.764,43.058Zm-25.6-25.419a9.539,9.539,0,1,1,9.539,9.539A9.55,9.55,0,0,1,102.166,17.639Zm1.1,25.26,1.308,3.244a2.461,2.461,0,0,1-4.22,2.437L98.2,45.825a2.955,2.955,0,1,1,5.068-2.926Zm16.745-10.034A1.007,1.007,0,0,0,119,33.872v1.007H104.414V33.872a1.007,1.007,0,1,0-2.013,0V35.09a2.512,2.512,0,0,0-1.5,2.3v1.421a3,3,0,0,1-2.668-3.431A10.628,10.628,0,0,1,104.947,27a11.527,11.527,0,0,0,13.517,0,10.627,10.627,0,0,1,6.716,8.375,3,3,0,0,1-2.668,3.431V37.387a2.512,2.512,0,0,0-1.5-2.294V33.872A1.007,1.007,0,0,0,120.009,32.865Zm5.2,12.96-2.155,2.755a2.461,2.461,0,0,1-4.22-2.437l1.308-3.244a2.955,2.955,0,1,1,5.068,2.926Z" transform="translate(-95.555)" fill="#fff"/>
      </g>
    </g>
    <g id="Group_462" data-name="Group 462" transform="translate(115.2 39.508)">
      <g id="Group_461" data-name="Group 461">
        <path id="Path_2181" data-name="Path 2181" d="M292.438,392.795a1.006,1.006,0,1,0,.295.712A1.014,1.014,0,0,0,292.438,392.795Z" transform="translate(-290.72 -392.5)" fill="#fff"/>
      </g>
    </g>
    <g id="Group_464" data-name="Group 464" transform="translate(108.557 20.851)">
      <g id="Group_463" data-name="Group 463" transform="translate(0)">
        <path id="Path_2182" data-name="Path 2182" d="M230.649,207.375a1.007,1.007,0,0,0-1.416.148,1.748,1.748,0,0,1-2.719,0,1.007,1.007,0,0,0-1.564,1.268,3.761,3.761,0,0,0,5.847,0A1.006,1.006,0,0,0,230.649,207.375Z" transform="translate(-224.726 -207.151)" fill="#fff"/>
      </g>
    </g>
    <g id="Group_466" data-name="Group 466" transform="translate(105.555 16.242)">
      <g id="Group_465" data-name="Group 465">
        <path id="Path_2183" data-name="Path 2183" d="M198.5,162.042a2.345,2.345,0,0,0-3.312,0,1.007,1.007,0,0,0,1.424,1.424.329.329,0,0,1,.465,0,1.007,1.007,0,0,0,1.424-1.424Z" transform="translate(-194.898 -161.357)" fill="#fff"/>
      </g>
    </g>
    <g id="Group_468" data-name="Group 468" transform="translate(113.954 16.242)">
      <g id="Group_467" data-name="Group 467" transform="translate(0)">
        <path id="Path_2184" data-name="Path 2184" d="M281.947,162.041a2.345,2.345,0,0,0-3.312,0,1.007,1.007,0,1,0,1.424,1.424.329.329,0,0,1,.465,0,1.007,1.007,0,0,0,1.424-1.424Z" transform="translate(-278.34 -161.356)" fill="#fff"/>
      </g>
    </g>
  </g>
</svg>
