<svg id="_006-maternity" data-name="006-maternity" xmlns="http://www.w3.org/2000/svg" width="33.76" height="59.202" viewBox="0 0 33.76 59.202">
  <path id="Path_2152" data-name="Path 2152" d="M.839,257.317a.887.887,0,0,1,.957.807c.095,1.362.167,2.65.217,3.841H22.884c.728-.8,3.076-3.876,3.076-10.484,0-6.746-4.119-8.954-7.429-10.727-2.025-1.084-3.773-2.022-3.939-3.8a6.1,6.1,0,0,0-2.1-4.232.846.846,0,0,1-.007-1.226.921.921,0,0,1,1.271-.007,7.829,7.829,0,0,1,2.631,5.31c.08.865,1.378,1.561,3.021,2.441,3.327,1.783,8.354,4.477,8.354,12.244,0,8.654-3.747,11.875-3.906,12.008a.919.919,0,0,1-.587.211H1.146a.885.885,0,0,1-.9-.839c-.047-1.4-.13-2.951-.245-4.62a.878.878,0,0,1,.837-.923Zm0,0" transform="translate(6.003 -204.498)" fill="#fff"/>
  <path id="Path_2153" data-name="Path 2153" d="M51.321,363.5a4.415,4.415,0,0,1,4.371,4.548c0,4.012-4.619,6.8-7.373,8.1a1.114,1.114,0,0,1-.944,0c-2.753-1.3-7.372-4.092-7.372-8.1a4.415,4.415,0,0,1,4.371-4.548,5.334,5.334,0,0,1,3.473,1.26,5.335,5.335,0,0,1,3.473-1.26Zm-4.246,2.974a3.5,3.5,0,0,0-2.7-1.239,2.653,2.653,0,0,0-2.574,2.813c0,2.184,2.2,4.5,6.047,6.393,3.848-1.89,6.047-4.209,6.047-6.393a2.639,2.639,0,0,0-2.574-2.813,3.5,3.5,0,0,0-2.7,1.239,1.006,1.006,0,0,1-1.546,0Zm0,0" transform="translate(-26.725 -321.469)" fill="#fff"/>
  <path id="Path_2154" data-name="Path 2154" d="M114.973,20.212a.9.9,0,0,1,1.1-.618.865.865,0,0,1,.641,1.059,9.018,9.018,0,0,0,1.581,8.007,13.172,13.172,0,0,0,1.9,2.072,95.309,95.309,0,0,1,3.679-11.108.884.884,0,0,1,.553-.514c3.638-1.183,6.33-4.145,8-8.8a27.014,27.014,0,0,0,1.4-6.3c-1.436-.633-5.469-2.271-8.758-2.271-2.325,0-4.857.343-6.007,2.89a17.655,17.655,0,0,0-.819,5.45,62.322,62.322,0,0,1-.723,6.91.9.9,0,0,1-1.034.713.87.87,0,0,1-.739-1,60.973,60.973,0,0,0,.7-6.732c.162-2.537.29-4.541.966-6.036C118.628,1.249,121.06,0,125.071,0c4.477,0,9.876,2.59,10.1,2.7a.864.864,0,0,1,.495.812,25.242,25.242,0,0,1-.524,3.734c.275,1.281,1.679,8.447-.539,11.635a3.673,3.673,0,0,1-2.485,1.6c-.082.014,0,0-1.468.1l-.825,2.507c.974.539,1.821,1.038,2.574,1.518a.849.849,0,0,1,.256,1.2.919.919,0,0,1-1.245.247c-.827-.526-1.776-1.08-2.9-1.691h-4.5a41.57,41.57,0,0,0-2.236,7.825v0q0,.482,0,1c0,1.552.334,4.745.72,8.442.264,2.526.563,5.389.816,8.285a.877.877,0,0,1-.82.937c-.025,0-.051,0-.076,0a.886.886,0,0,1-.894-.795c-.252-2.881-.55-5.737-.813-8.256-.407-3.9-.729-6.977-.729-8.616q0-.185,0-.365a14.955,14.955,0,0,1-3.114-3.108,10.779,10.779,0,0,1-1.89-9.5Zm16.886-1.45a1.885,1.885,0,0,0,1.254-.846c.978-1.4,1.042-4.137.831-6.555-1.8,4.683-4.736,7.866-8.539,9.251-.221.57-.456,1.187-.695,1.829.878-.005,2.537,0,3.412.091l1-3.045a.894.894,0,0,1,.8-.6Zm0,0" transform="translate(-114.579 0)" fill="#fff"/>
</svg>
