<svg id="_006-maternity" data-name="006-maternity" xmlns="http://www.w3.org/2000/svg" width="33.763" height="59.202" viewBox="0 0 33.763 59.202">
  <path id="Path_2152" data-name="Path 2152" d="M25.978,257.317a.866.866,0,0,0-.923.807c-.091,1.362-.161,2.65-.209,3.841H4.7c-.7-.8-2.968-3.876-2.968-10.484,0-6.746,3.975-8.954,7.169-10.727,1.954-1.084,3.641-2.022,3.8-3.8a6.179,6.179,0,0,1,2.031-4.232.867.867,0,0,0-1.22-1.234,7.936,7.936,0,0,0-2.539,5.31c-.078.865-1.33,1.561-2.916,2.441C4.852,241.02,0,243.714,0,251.481c0,8.654,3.616,11.875,3.77,12.008a.868.868,0,0,0,.567.211H25.681a.867.867,0,0,0,.867-.839c.045-1.4.125-2.951.237-4.62a.867.867,0,0,0-.808-.923Zm0,0" transform="translate(0 -204.498)" fill="#fff"/>
  <path id="Path_2153" data-name="Path 2153" d="M44.223,363.5A4.346,4.346,0,0,0,40,368.048c0,4.012,4.458,6.8,7.115,8.1a1.041,1.041,0,0,0,.911,0c2.657-1.3,7.114-4.092,7.114-8.1a4.346,4.346,0,0,0-4.219-4.548,5.046,5.046,0,0,0-3.351,1.26,5.047,5.047,0,0,0-3.351-1.26Zm4.1,2.974a3.339,3.339,0,0,1,2.605-1.239,2.619,2.619,0,0,1,2.484,2.813c0,2.184-2.122,4.5-5.836,6.393-3.714-1.89-5.836-4.209-5.836-6.393a2.6,2.6,0,0,1,2.484-2.813,3.341,3.341,0,0,1,2.605,1.239.95.95,0,0,0,1.492,0Zm0,0" transform="translate(-35.378 -321.469)" fill="#fff"/>
  <path id="Path_2154" data-name="Path 2154" d="M134.713,20.212a.867.867,0,0,0-1.678.441,9.276,9.276,0,0,1-1.526,8.007,13.008,13.008,0,0,1-1.833,2.072,97.73,97.73,0,0,0-3.55-11.108.866.866,0,0,0-.534-.514c-3.511-1.183-6.109-4.145-7.724-8.8a27.858,27.858,0,0,1-1.352-6.3c1.386-.633,5.278-2.271,8.452-2.271,2.243,0,4.687.343,5.8,2.89a18.241,18.241,0,0,1,.79,5.45,64.5,64.5,0,0,0,.7,6.91.867.867,0,0,0,1.711-.284,63.108,63.108,0,0,1-.677-6.732c-.156-2.537-.28-4.541-.932-6.036C131.186,1.249,128.838,0,124.968,0c-4.321,0-9.531,2.59-9.75,2.7a.868.868,0,0,0-.477.812,26.106,26.106,0,0,0,.505,3.734c-.266,1.281-1.621,8.447.52,11.635a3.536,3.536,0,0,0,2.4,1.6c.079.014,0,0,1.417.1l.8,2.507c-.94.539-1.757,1.038-2.484,1.518a.867.867,0,0,0,.955,1.448c.8-.526,1.714-1.08,2.8-1.691h4.344a42.748,42.748,0,0,1,2.158,7.825v0q0,.482,0,1c0,1.552-.322,4.745-.695,8.442-.255,2.526-.543,5.389-.787,8.285a.867.867,0,0,0,.792.937c.024,0,.049,0,.074,0a.867.867,0,0,0,.863-.795c.243-2.881.531-5.737.785-8.256.393-3.9.7-6.977.7-8.616q0-.185,0-.365a14.689,14.689,0,0,0,3.005-3.108,11.088,11.088,0,0,0,1.824-9.5Zm-16.3-1.45a1.818,1.818,0,0,1-1.21-.846c-.944-1.4-1.005-4.137-.8-6.555,1.734,4.683,4.57,7.866,8.241,9.251.214.57.44,1.187.67,1.829-.847-.005-2.449,0-3.293.091l-.967-3.045a.868.868,0,0,0-.77-.6Zm0,0" transform="translate(-101.33 0)" fill="#fff"/>
</svg>
