<svg xmlns="http://www.w3.org/2000/svg" width="42.476" height="42.476" viewBox="0 0 42.476 42.476">
  <g id="Group_440" data-name="Group 440" transform="translate(0)">
    <g id="Group_439" data-name="Group 439">
      <path id="Path_2167" data-name="Path 2167" d="M309.071,79.325A1.8,1.8,0,0,0,306,78.054a.622.622,0,1,0,.88.88.552.552,0,1,1,.781.781.622.622,0,0,0,.88.88A1.785,1.785,0,0,0,309.071,79.325Z" transform="translate(-280.45 -71.097)" fill="#fff"/>
      <path id="Path_2168" data-name="Path 2168" d="M41.443,17.58a13.027,13.027,0,0,0,.943-4.733,12.537,12.537,0,0,0-3.247-8.626,5.5,5.5,0,0,1,2.244-1.287.622.622,0,1,0-.347-1.195,6.749,6.749,0,0,0-2.777,1.6A12.784,12.784,0,0,0,24.9,1.038,4.792,4.792,0,0,0,21.915,0h-.073a4.823,4.823,0,0,0-4.216,7.026,2.842,2.842,0,0,0-1.132.179,30.362,30.362,0,0,0-9.263,6.247,6.764,6.764,0,0,0-1.914,5.111c.032.557.085,1.175.156,1.842a20.292,20.292,0,0,0-4.079,5.277C.75,26.916-.219,29.214.526,30.741l.009.018a8.708,8.708,0,0,0,11.18,11.18l.019.01a2.935,2.935,0,0,0,1.3.266,9.574,9.574,0,0,0,4.564-1.582A20.68,20.68,0,0,0,22.068,37c.669.072,1.288.124,1.844.156q.192.011.384.011a6.763,6.763,0,0,0,4.727-1.925,30.984,30.984,0,0,0,4.234-5.376.622.622,0,1,0-1.053-.663,29.7,29.7,0,0,1-4.052,5.15,5.516,5.516,0,0,1-4.169,1.56c-.292-.017-.6-.039-.931-.068q.248-.319.472-.64a6.563,6.563,0,0,0,1.168-3.849,74.438,74.438,0,0,0-1.068-10.8l-.022-.129a37.9,37.9,0,0,1,9.74,3.116,1.615,1.615,0,0,1,.764,2c-.138.368-.313.77-.519,1.2a.622.622,0,1,0,1.12.542c.223-.461.412-.9.563-1.3a2.843,2.843,0,0,0,.179-1.131,4.822,4.822,0,0,0,5.994-7.27ZM19.386,2.292a3.558,3.558,0,0,1,4.2-.637A13.326,13.326,0,0,0,18.64,6.266,3.564,3.564,0,0,1,19.386,2.292ZM3.435,39.04a7.45,7.45,0,0,1-1.909-7.306,26.126,26.126,0,0,0,6.684,2.531c.458,1.641.921,3.081,1.365,4.234a13.537,13.537,0,0,0,1.17,2.449A7.45,7.45,0,0,1,3.435,39.04ZM22.5,34.5a18.668,18.668,0,0,1-5.543,5.066c-2.023,1.2-3.815,1.688-4.678,1.267a.452.452,0,0,1-.061-.037.636.636,0,0,0-.073-.06c-.51-.467-1.528-2.374-2.823-7.109q-.007-.03-.016-.059-.22-.808-.45-1.726a.622.622,0,0,0-1.207.3c.061.244.123.485.184.723C3.114,31.5,1.98,30.6,1.717,30.3L1.7,30.28a.449.449,0,0,1-.059-.085c-.663-1.357.977-5.142,4.018-8.24.3,2.2.753,4.75,1.318,7.33A.622.622,0,0,0,8.2,29.019,74.451,74.451,0,0,1,6.559,18.493a5.517,5.517,0,0,1,1.56-4.169A28.914,28.914,0,0,1,16.932,8.37a1.615,1.615,0,0,1,2,.764,43.668,43.668,0,0,1,3.279,10.551.621.621,0,0,0,.032.164,64.579,64.579,0,0,1,1.206,11.525A5.325,5.325,0,0,1,22.5,34.5ZM34.832,23.2a2.844,2.844,0,0,0-.915-.757A39.4,39.4,0,0,0,23.36,19.115,40.814,40.814,0,0,0,20.032,8.559a2.844,2.844,0,0,0-.757-.915,12.011,12.011,0,0,1,2.089-2.8,11.657,11.657,0,0,1,16.463-.192,11.656,11.656,0,0,1-.192,16.463A12.01,12.01,0,0,1,34.832,23.2Zm5.352-.111a3.565,3.565,0,0,1-3.974.746A13.4,13.4,0,0,0,40.824,18.9,3.558,3.558,0,0,1,40.184,23.089Z" transform="translate(0 0)" fill="#fff"/>
      <path id="Path_2169" data-name="Path 2169" d="M396.766,167.01a1.785,1.785,0,0,0-1.271.526.622.622,0,1,0,.88.88.552.552,0,0,1,.781.781.622.622,0,0,0,.88.88,1.8,1.8,0,0,0-1.271-3.067Z" transform="translate(-362.518 -153.155)" fill="#fff"/>
      <path id="Path_2170" data-name="Path 2170" d="M340.558,139.268a1.029,1.029,0,0,1-1.1-1.1.622.622,0,1,0-1.241-.085,2.273,2.273,0,0,0,2.269,2.43c.052,0,.1,0,.157-.005a.622.622,0,1,0-.085-1.241Z" transform="translate(-310.154 -126.097)" fill="#fff"/>
    </g>
  </g>
</svg>
